<svg width="76" height="76" viewBox="0 0 76 76" fill="none" xmlns="http://www.w3.org/2000/svg">
<path d="M37.9685 6.33331C20.4885 6.33331 6.3335 20.52 6.3335 38C6.3335 55.48 20.4885 69.6666 37.9685 69.6666C55.4802 69.6666 69.6668 55.48 69.6668 38C69.6668 20.52 55.4802 6.33331 37.9685 6.33331ZM38.0002 63.3333C24.0035 63.3333 12.6668 51.9966 12.6668 38C12.6668 24.0033 24.0035 12.6666 38.0002 12.6666C51.9968 12.6666 63.3335 24.0033 63.3335 38C63.3335 51.9966 51.9968 63.3333 38.0002 63.3333Z" fill="#FC8512"/>
<path d="M39.5835 22.1667H34.8335V41.1667L51.4585 51.1417L53.8335 47.2467L39.5835 38.7917V22.1667Z" fill="#FC8512"/>
</svg>
