<svg width="64" height="65" viewBox="0 0 64 65" fill="none" xmlns="http://www.w3.org/2000/svg">
<path d="M46.688 18.768L25.6 39.8397L14.112 28.3925L9.6 32.9011L25.6 48.8887L51.2 23.3085L46.688 18.768ZM32 0.925781C14.336 0.925781 0 15.2507 0 32.9011C0 50.5514 14.336 64.8763 32 64.8763C49.664 64.8763 64 50.5514 64 32.9011C64 15.2507 49.664 0.925781 32 0.925781ZM32 58.4813C17.856 58.4813 6.4 47.0341 6.4 32.9011C6.4 18.768 17.856 7.32084 32 7.32084C46.144 7.32084 57.6 18.768 57.6 32.9011C57.6 47.0341 46.144 58.4813 32 58.4813Z" fill="#FC8512"/>
</svg>
