<svg width="64" height="62" viewBox="0 0 64 62" fill="none" xmlns="http://www.w3.org/2000/svg">
<path d="M15.6444 56.2094H27.0222C27.0222 59.3009 24.4622 61.8303 21.3333 61.8303C18.2044 61.8303 15.6444 59.3009 15.6444 56.2094ZM9.95556 53.3989H32.7111V47.778H9.95556V53.3989ZM42.6667 26.6995C42.6667 37.4354 35.1004 43.1688 31.9431 44.9675H10.7236C7.56622 43.1688 0 37.4354 0 26.6995C0 15.0641 9.55733 5.62094 21.3333 5.62094C33.1093 5.62094 42.6667 15.0641 42.6667 26.6995ZM36.9778 26.6995C36.9778 18.1837 29.952 11.2419 21.3333 11.2419C12.7147 11.2419 5.68889 18.1837 5.68889 26.6995C5.68889 33.6413 9.92711 37.6322 12.3733 39.3466H30.2933C32.7396 37.6322 36.9778 33.6413 36.9778 26.6995ZM56.5191 20.7132L52.6222 22.4838L56.5191 24.2543L58.3111 28.1047L60.1031 24.2543L64 22.4838L60.1031 20.7132L58.3111 16.8628L56.5191 20.7132ZM49.7778 16.8628L52.4516 11.0732L58.3111 8.43141L52.4516 5.78957L49.7778 0L47.104 5.78957L41.2444 8.43141L47.104 11.0732L49.7778 16.8628Z" fill="#FC8512"/>
</svg>
