<svg width="65" height="64" viewBox="0 0 65 64" fill="none" xmlns="http://www.w3.org/2000/svg">
<path d="M32.5 63.719C36.0858 63.719 39.0196 60.82 39.0196 57.2768H25.9804C25.9804 60.82 28.9142 63.719 32.5 63.719ZM52.0587 44.3923V28.2867C52.0587 18.3979 46.7452 10.1196 37.3897 7.92926V5.7389C37.3897 3.06537 35.2056 0.907227 32.5 0.907227C29.7944 0.907227 27.6103 3.06537 27.6103 5.7389V7.92926C18.2874 10.1196 12.9413 18.3657 12.9413 28.2867V44.3923L6.42177 50.8345V54.0556H58.5782V50.8345L52.0587 44.3923ZM45.5391 47.6134H19.4609V28.2867C19.4609 20.2983 24.3832 13.7917 32.5 13.7917C40.6169 13.7917 45.5391 20.2983 45.5391 28.2867V47.6134ZM18.0918 5.99659L13.4303 1.39039C5.60682 7.28504 0.456369 16.3686 0 26.6762H6.51956C7.00853 18.1402 11.4418 10.6672 18.0918 5.99659ZM58.4804 26.6762H65C64.511 16.3686 59.3606 7.28504 51.5697 1.39039L46.9408 5.99659C53.5256 10.6672 57.9915 18.1402 58.4804 26.6762Z" fill="#FC8512"/>
</svg>
