<svg width="41" height="51" viewBox="0 0 41 51" fill="none" xmlns="http://www.w3.org/2000/svg">
<path d="M20.5 25.5C17.6812 25.5 15.375 23.205 15.375 20.4C15.375 17.595 17.6812 15.3 20.5 15.3C23.3188 15.3 25.625 17.595 25.625 20.4C25.625 23.205 23.3188 25.5 20.5 25.5ZM35.875 20.91C35.875 11.6535 29.0844 5.1 20.5 5.1C11.9156 5.1 5.125 11.6535 5.125 20.91C5.125 26.877 10.1219 34.782 20.5 44.217C30.8781 34.782 35.875 26.877 35.875 20.91ZM20.5 0C31.2625 0 41 8.211 41 20.91C41 29.376 34.1581 39.3975 20.5 51C6.84188 39.3975 0 29.376 0 20.91C0 8.211 9.7375 0 20.5 0Z" fill="#FC8512"/>
</svg>
