<svg width="45" height="45" viewBox="0 0 45 45" fill="none" xmlns="http://www.w3.org/2000/svg">
<path d="M8.85 5C9 7.225 9.375 9.4 9.975 11.475L6.975 14.475C5.95 11.475 5.3 8.3 5.075 5H8.85ZM33.5 35.05C35.625 35.65 37.8 36.025 40 36.175V39.9C36.7 39.675 33.525 39.025 30.5 38.025L33.5 35.05ZM11.25 0H2.5C1.125 0 0 1.125 0 2.5C0 25.975 19.025 45 42.5 45C43.875 45 45 43.875 45 42.5V33.775C45 32.4 43.875 31.275 42.5 31.275C39.4 31.275 36.375 30.775 33.575 29.85C33.325 29.75 33.05 29.725 32.8 29.725C32.15 29.725 31.525 29.975 31.025 30.45L25.525 35.95C18.45 32.325 12.65 26.55 9.05 19.475L14.55 13.975C15.25 13.275 15.45 12.3 15.175 11.425C14.25 8.625 13.75 5.625 13.75 2.5C13.75 1.125 12.625 0 11.25 0Z" fill="#FC8512"/>
</svg>
